<svg width="110" height="96" viewBox="0 0 110 96" fill="none" xmlns="http://www.w3.org/2000/svg"><path fill-rule="evenodd" clip-rule="evenodd" d="M110 41.1422L110 35.2646L41.2513 35.2646L41.2513 0L29.4656 -5.15048e-07L29.4655 35.2646L6.08755e-06 35.2646L5.83057e-06 41.1422C4.50592e-06 71.4392 24.6243 95.9997 55 95.9997C85.3757 95.9997 110 71.4392 110 41.1422ZM29.4655 47.0198L12.1841 47.0198C12.5531 49.7188 13.1726 52.3383 14.0184 54.8542L95.9816 54.8542C96.8274 52.3383 97.4469 49.7188 97.8159 47.0198L41.2513 47.0198L41.2513 47.0207L29.4655 47.0207L29.4655 47.0198ZM20.132 66.6094C27.996 77.3024 40.6852 84.2446 55 84.2446C69.3148 84.2446 82.004 77.3024 89.868 66.6094L20.132 66.6094ZM80.5361 -1.28759e-06L80.5361 19.592L68.7504 19.592L68.7504 -1.80263e-06L80.5361 -1.28759e-06Z" fill="#0047FF"/></svg>